<svg width="25" height="25" viewBox="0 0 25 25" fill="none" xmlns="http://www.w3.org/2000/svg">
<g id="phone">
<g id="Group">
<path id="Vector" d="M21.5816 18.6093L21.4862 18.3218C21.2602 17.6502 20.5196 16.9497 19.8392 16.7652L17.3209 16.0772C16.638 15.8915 15.6639 16.1413 15.1642 16.6409L14.2528 17.5523C10.9406 16.6573 8.34333 14.0599 7.44952 10.7483L8.36096 9.83688C8.86061 9.33723 9.11039 8.36437 8.9246 7.68147L8.23792 5.16198C8.05213 4.48032 7.35038 3.73969 6.68005 3.51621L6.39258 3.41956C5.72096 3.19609 4.76313 3.42209 4.26352 3.9217L2.9002 5.28627C2.65664 5.52854 2.50098 6.22149 2.50098 6.22402C2.4533 10.5524 4.15052 14.7227 7.21227 17.7845C10.2665 20.8387 14.4211 22.5334 18.737 22.4971C18.7595 22.4971 19.4726 22.3439 19.7161 22.1016L21.0795 20.7382C21.5791 20.2387 21.805 19.2809 21.5816 18.6093Z" fill="#442E7C"/>
</g>
</g>
</svg>
