<svg width="225" height="77" viewBox="0 0 225 77" fill="none" xmlns="http://www.w3.org/2000/svg">
<path d="M11.236 27.618C11.236 29.182 10.822 30.4393 9.994 31.39C9.04333 32.4633 7.67867 33 5.9 33C4.244 33 2.91 32.4173 1.898 31.252C1.00867 30.2093 0.564 29.0133 0.564 27.664V6.228C0.564 4.848 1.00867 3.63667 1.898 2.594C2.91 1.398 4.244 0.799998 5.9 0.799998C7.61733 0.799998 8.982 1.45933 9.994 2.778C10.822 3.85133 11.236 5.00133 11.236 6.228V8.298C11.236 8.63533 10.73 8.804 9.718 8.804C8.67533 8.804 8.154 8.63533 8.154 8.298V6.136C8.154 5.584 7.95467 5.04733 7.556 4.526C7.096 3.94333 6.544 3.652 5.9 3.652C5.22533 3.652 4.658 3.928 4.198 4.48C3.76867 4.97067 3.554 5.50733 3.554 6.09V27.388C3.554 29.0747 4.336 29.918 5.9 29.918C7.40267 29.918 8.154 29.1207 8.154 27.526V24.812C8.154 24.5667 8.62933 24.444 9.58 24.444C10.684 24.444 11.236 24.5667 11.236 24.812V27.618ZM24.443 27.25C24.443 31.0833 22.6644 33 19.107 33C17.3284 33 15.9637 32.4173 15.013 31.252C14.185 30.24 13.771 28.906 13.771 27.25V6.412C13.771 4.72533 14.2924 3.36067 15.335 2.318C16.3164 1.306 17.5737 0.799998 19.107 0.799998C20.6404 0.799998 21.913 1.33666 22.925 2.41C23.937 3.48333 24.443 4.81733 24.443 6.412V27.25ZM21.407 6.412C21.407 5.73733 21.1924 5.10867 20.763 4.526C20.303 3.94333 19.751 3.652 19.107 3.652C18.463 3.652 17.8957 3.94333 17.405 4.526C16.9757 5.10867 16.761 5.73733 16.761 6.412V27.112C16.761 28.9827 17.543 29.918 19.107 29.918C20.6404 29.918 21.407 28.9827 21.407 27.112V6.412ZM38.0019 27.664C38.0019 31.2213 36.1926 33 32.5739 33C30.6419 33 29.2466 32.3867 28.3879 31.16C27.6826 30.2093 27.3299 29.0593 27.3299 27.71V24.72C27.3299 24.4747 27.7899 24.352 28.7099 24.352C29.7832 24.352 30.3199 24.4747 30.3199 24.72V27.48C30.3199 29.1053 31.0712 29.918 32.5739 29.918C34.1992 29.918 35.0119 29.1207 35.0119 27.526V21.73C34.3372 22.006 33.5552 22.144 32.6659 22.144C30.9486 22.144 29.5992 21.546 28.6179 20.35C27.7592 19.338 27.3299 18.1727 27.3299 16.854V1.49C27.3299 1.03 27.8206 0.799998 28.8019 0.799998C29.8139 0.799998 30.3199 1.03 30.3199 1.49V16.624C30.3199 18.2493 31.1019 19.062 32.6659 19.062C34.2299 19.062 35.0119 18.2647 35.0119 16.67V1.352C35.0119 0.983998 35.4719 0.799998 36.3919 0.799998H36.4379C37.0819 0.799998 37.4959 0.830665 37.6799 0.891999C37.7719 0.922666 37.8486 0.983999 37.9099 1.076C37.9712 1.13733 38.0019 1.214 38.0019 1.306V27.664ZM48.9057 20.58C48.9057 19.6293 48.599 18.8167 47.9857 18.142C47.3724 17.498 46.575 17.176 45.5937 17.176C44.9804 17.176 44.6277 17.2067 44.5357 17.268C44.321 17.3907 44.2137 17.8353 44.2137 18.602V28.86C44.2137 29.1973 44.2597 29.458 44.3517 29.642C44.4744 29.8567 44.965 29.964 45.8237 29.964C46.7744 29.964 47.4797 29.734 47.9397 29.274C48.5837 28.63 48.9057 27.7407 48.9057 26.606V20.58ZM50.1937 0.799998C50.5924 0.799998 50.7917 1.26 50.7917 2.18C50.7917 3.008 50.5004 3.422 49.9177 3.422H45.4557C44.965 3.422 44.643 3.45267 44.4897 3.514C44.275 3.66733 44.1677 4.23467 44.1677 5.216V13.174C44.1677 13.818 44.459 14.14 45.0417 14.14C47.3417 14.14 49.0744 14.7993 50.2397 16.118C51.3437 17.406 51.8957 18.9087 51.8957 20.626V26.606C51.8957 28.722 51.3284 30.3167 50.1937 31.39C48.9977 32.4633 47.3877 33 45.3637 33H42.6037C42.2664 33 42.0057 32.954 41.8217 32.862C41.423 32.77 41.2237 32.6013 41.2237 32.356V1.444C41.2237 1.13733 41.3004 0.953332 41.4537 0.891999C41.5764 0.830665 41.8217 0.799998 42.1897 0.799998H50.1937ZM64.403 31.712C64.403 32.5707 64.219 33 63.851 33H56.951C55.8777 33 55.2643 32.9387 55.111 32.816C54.927 32.6627 54.835 32.1413 54.835 31.252V2.18C54.835 1.78133 54.9423 1.444 55.157 1.168C55.341 0.922665 55.6937 0.799998 56.215 0.799998H63.851C64.219 0.799998 64.403 1.26 64.403 2.18C64.403 3.008 64.2037 3.422 63.805 3.422H59.205C58.6223 3.422 58.2697 3.49867 58.147 3.652C57.9937 3.86667 57.917 4.158 57.917 4.526V13.266C57.917 13.91 58.009 14.3087 58.193 14.462C58.377 14.5847 58.7143 14.646 59.205 14.646H61.367C61.7963 14.646 62.011 15.0907 62.011 15.98C62.011 16.8387 61.7963 17.268 61.367 17.268H59.297C58.7143 17.268 58.331 17.314 58.147 17.406C57.9323 17.5593 57.825 18.004 57.825 18.74V28.63C57.825 29.6113 57.9017 30.148 58.055 30.24C58.2697 30.3627 58.7297 30.424 59.435 30.424H63.805C64.2037 30.424 64.403 30.8533 64.403 31.712ZM77.591 13.174C77.591 14.8913 77.039 16.394 75.935 17.682C74.7697 19.0007 73.037 19.66 70.737 19.66C70.1543 19.66 69.863 19.982 69.863 20.626V32.264C69.863 32.6013 69.7557 32.816 69.541 32.908C69.3877 32.9693 68.9737 33 68.299 33C67.6857 33 67.3023 32.9693 67.149 32.908C66.9957 32.8467 66.919 32.6627 66.919 32.356V2.226C66.919 1.674 67.0263 1.29067 67.241 1.076C67.4557 0.891998 67.8083 0.799998 68.299 0.799998H71.059C73.083 0.799998 74.693 1.33666 75.889 2.41C77.0237 3.48333 77.591 5.078 77.591 7.194V13.174ZM74.601 7.194C74.601 6.05933 74.279 5.17 73.635 4.526C73.175 4.066 72.4697 3.836 71.519 3.836C70.6603 3.836 70.1697 3.94333 70.047 4.158C69.955 4.342 69.909 4.60266 69.909 4.94V15.198C69.909 15.9647 70.0163 16.4093 70.231 16.532C70.323 16.5933 70.6757 16.624 71.289 16.624C72.2703 16.624 73.0677 16.302 73.681 15.658C74.2943 14.9833 74.601 14.1707 74.601 13.22V7.194ZM91.2023 13.174C91.2023 14.8913 90.6503 16.394 89.5463 17.682C88.381 19.0007 86.6483 19.66 84.3483 19.66C83.7657 19.66 83.4743 19.982 83.4743 20.626V32.264C83.4743 32.6013 83.367 32.816 83.1523 32.908C82.999 32.9693 82.585 33 81.9103 33C81.297 33 80.9137 32.9693 80.7603 32.908C80.607 32.8467 80.5303 32.6627 80.5303 32.356V2.226C80.5303 1.674 80.6377 1.29067 80.8523 1.076C81.067 0.891998 81.4197 0.799998 81.9103 0.799998H84.6703C86.6943 0.799998 88.3043 1.33666 89.5003 2.41C90.635 3.48333 91.2023 5.078 91.2023 7.194V13.174ZM88.2123 7.194C88.2123 6.05933 87.8903 5.17 87.2463 4.526C86.7863 4.066 86.081 3.836 85.1303 3.836C84.2717 3.836 83.781 3.94333 83.6583 4.158C83.5663 4.342 83.5203 4.60266 83.5203 4.94V15.198C83.5203 15.9647 83.6277 16.4093 83.8423 16.532C83.9343 16.5933 84.287 16.624 84.9003 16.624C85.8817 16.624 86.679 16.302 87.2923 15.658C87.9057 14.9833 88.2123 14.1707 88.2123 13.22V7.194ZM94.1417 1.49C94.1417 1.03 94.5863 0.799998 95.4757 0.799998C96.1503 0.799998 96.5797 0.845998 96.7637 0.937999C96.9477 1.03 97.0397 1.26 97.0397 1.628V18.28C97.0397 18.832 97.1317 19.108 97.3157 19.108C97.4997 19.108 97.6683 18.74 97.8217 18.004L99.7077 10.414C100.474 7.25533 101.103 4.72533 101.594 2.824C101.808 1.96533 102.054 1.41333 102.33 1.168C102.575 0.922665 103.02 0.799998 103.664 0.799998C104.43 0.799998 104.814 0.953331 104.814 1.26V32.172C104.814 32.54 104.722 32.77 104.538 32.862C104.384 32.954 103.97 33 103.296 33C102.652 33 102.253 32.954 102.1 32.862C101.916 32.77 101.824 32.54 101.824 32.172V13.818C101.824 13.266 101.716 12.99 101.502 12.99C101.471 12.99 101.149 14.1093 100.536 16.348C99.9223 18.74 98.7263 23.6927 96.9477 31.206C96.6717 32.402 96.1197 33 95.2917 33C94.7397 33 94.4023 32.8927 94.2797 32.678C94.1877 32.494 94.1417 31.9727 94.1417 31.114V1.49ZM115.372 22.144C115.494 22.6347 115.203 22.88 114.498 22.88L108.794 22.834C107.966 22.834 107.613 22.5427 107.736 21.96C107.766 21.7147 107.766 21.2853 107.736 20.672C107.705 20.212 108.18 19.982 109.162 19.982H113.118C114.528 19.9207 115.234 20.166 115.234 20.718C115.234 21.3313 115.28 21.8067 115.372 22.144ZM125.402 18.74C125.402 18.004 125.295 17.5593 125.08 17.406C124.896 17.314 124.513 17.268 123.93 17.268H121.86C121.431 17.268 121.216 16.8387 121.216 15.98C121.216 15.0907 121.431 14.646 121.86 14.646H124.114C124.605 14.646 124.942 14.5847 125.126 14.462C125.31 14.3087 125.402 13.91 125.402 13.266V6.09C125.402 5.50733 125.188 4.97067 124.758 4.48C124.298 3.928 123.731 3.652 123.056 3.652C122.412 3.652 121.86 3.94333 121.4 4.526C121.002 5.04733 120.802 5.584 120.802 6.136V8.298C120.802 8.63533 120.281 8.804 119.238 8.804C118.226 8.804 117.72 8.63533 117.72 8.298V6.228C117.72 5.00133 118.134 3.85133 118.962 2.778C119.974 1.45933 121.339 0.799998 123.056 0.799998C124.712 0.799998 126.046 1.398 127.058 2.594C127.948 3.63667 128.392 4.848 128.392 6.228V27.664C128.392 29.0133 127.948 30.2093 127.058 31.252C126.046 32.4173 124.712 33 123.056 33C121.278 33 119.913 32.4633 118.962 31.39C118.134 30.4393 117.72 29.182 117.72 27.618V24.812C117.72 24.5667 118.272 24.444 119.376 24.444C120.327 24.444 120.802 24.5667 120.802 24.812V27.526C120.802 29.1207 121.554 29.918 123.056 29.918C124.62 29.918 125.402 29.0747 125.402 27.388V18.74ZM140.219 2.18C140.219 3.008 140.035 3.422 139.667 3.422H137.689C137.199 3.422 136.877 3.45267 136.723 3.514C136.509 3.66733 136.401 4.23467 136.401 5.216V32.54C136.401 32.8467 135.849 33 134.745 33C133.795 33 133.319 32.8467 133.319 32.54V5.216C133.319 4.23467 133.212 3.66733 132.997 3.514C132.844 3.45267 132.522 3.422 132.031 3.422H130.329C129.777 3.422 129.501 3.008 129.501 2.18C129.501 1.26 129.716 0.799998 130.145 0.799998H139.621C140.02 0.799998 140.219 1.26 140.219 2.18ZM152.605 27.25C152.605 31.0833 150.826 33 147.269 33C145.49 33 144.126 32.4173 143.175 31.252C142.347 30.24 141.933 28.906 141.933 27.25V6.412C141.933 4.72533 142.454 3.36067 143.497 2.318C144.478 1.306 145.736 0.799998 147.269 0.799998C148.802 0.799998 150.075 1.33666 151.087 2.41C152.099 3.48333 152.605 4.81733 152.605 6.412V27.25ZM149.569 6.412C149.569 5.73733 149.354 5.10867 148.925 4.526C148.465 3.94333 147.913 3.652 147.269 3.652C146.625 3.652 146.058 3.94333 145.567 4.526C145.138 5.10867 144.923 5.73733 144.923 6.412V27.112C144.923 28.9827 145.705 29.918 147.269 29.918C148.802 29.918 149.569 28.9827 149.569 27.112V6.412ZM172.42 32.448C172.481 32.816 171.975 33 170.902 33C169.951 33 169.415 32.7853 169.292 32.356L166.072 19.384C165.919 18.74 165.597 18.9853 165.106 20.12C164.861 20.7027 164.738 21.3467 164.738 22.052V32.172C164.738 32.54 164.646 32.77 164.462 32.862C164.309 32.954 163.895 33 163.22 33C162.269 33 161.794 32.7547 161.794 32.264V1.49C161.794 1.06066 162.254 0.845997 163.174 0.845997C164.217 0.845997 164.738 1.076 164.738 1.536V12.668C164.738 13.3427 164.815 13.6493 164.968 13.588C165.029 13.5573 165.137 13.266 165.29 12.714C165.75 11.1807 166.287 9.31 166.9 7.102L168.464 1.444C168.556 1.13733 169.108 0.983998 170.12 0.983998C171.224 0.983998 171.73 1.13733 171.638 1.444L168.28 13.174C168.157 13.6647 168.096 14.1707 168.096 14.692C168.096 14.9987 168.157 15.5507 168.28 16.348C168.771 18.3413 169.445 20.9787 170.304 24.26C171.132 27.3267 171.837 30.056 172.42 32.448ZM184.904 27.25C184.904 31.0833 183.125 33 179.568 33C177.789 33 176.425 32.4173 175.474 31.252C174.646 30.24 174.232 28.906 174.232 27.25V6.412C174.232 4.72533 174.753 3.36067 175.796 2.318C176.777 1.306 178.035 0.799998 179.568 0.799998C181.101 0.799998 182.374 1.33666 183.386 2.41C184.398 3.48333 184.904 4.81733 184.904 6.412V27.25ZM181.868 6.412C181.868 5.73733 181.653 5.10867 181.224 4.526C180.764 3.94333 180.212 3.652 179.568 3.652C178.924 3.652 178.357 3.94333 177.866 4.526C177.437 5.10867 177.222 5.73733 177.222 6.412V27.112C177.222 28.9827 178.004 29.918 179.568 29.918C181.101 29.918 181.868 28.9827 181.868 27.112V6.412ZM197.911 2.18C197.911 3.008 197.619 3.422 197.037 3.422H192.713C192.222 3.422 191.9 3.45267 191.747 3.514C191.532 3.66733 191.425 4.23467 191.425 5.216L191.333 32.31C191.333 32.7393 190.811 32.954 189.769 32.954C188.818 32.954 188.343 32.7547 188.343 32.356V2.272C188.343 1.72 188.419 1.352 188.573 1.168C188.787 0.922665 189.079 0.799998 189.447 0.799998H197.313C197.711 0.799998 197.911 1.26 197.911 2.18ZM211.104 29.964H211.656C212.055 29.964 212.392 30.0713 212.668 30.286C212.914 30.47 213.036 30.8227 213.036 31.344V36.496C213.036 36.9253 212.592 37.14 211.702 37.14C210.844 37.14 210.414 36.9253 210.414 36.496V34.426C210.414 33.8433 210.368 33.46 210.276 33.276C210.123 33.0613 209.678 32.954 208.942 32.954H202.594C202.472 32.9847 202.364 33 202.272 33C201.904 33.0307 201.674 33.1227 201.582 33.276C201.49 33.46 201.444 33.8433 201.444 34.426V36.496C201.444 36.9253 201.015 37.14 200.156 37.14C199.267 37.14 198.822 36.9253 198.822 36.496V31.344C198.822 30.8227 198.945 30.47 199.19 30.286C199.466 30.0713 199.804 29.964 200.202 29.964H200.8L204.204 1.582C204.266 1.06066 204.879 0.799998 206.044 0.799998C206.995 0.799998 207.501 1.03 207.562 1.49L211.104 29.964ZM203.882 29.412C203.852 29.78 203.99 29.964 204.296 29.964H207.746C208.022 29.964 208.145 29.7953 208.114 29.458C207.194 20.5033 206.55 14.14 206.182 10.368C206.182 10.0307 206.075 9.862 205.86 9.862C205.676 9.862 205.584 10.0153 205.584 10.322L203.882 29.412ZM224.728 32.54C224.759 32.7853 224.682 32.9233 224.498 32.954C224.406 32.9847 224.007 33 223.302 33C222.535 33 222.106 32.9847 222.014 32.954C221.799 32.9233 221.677 32.7547 221.646 32.448C221.523 31.6507 221.355 30.4087 221.14 28.722L220.634 25.042C220.603 24.766 220.128 24.628 219.208 24.628C218.319 24.628 217.859 24.766 217.828 25.042C217.521 27.894 217.276 30.3933 217.092 32.54C217.061 32.8467 216.417 33 215.16 33C214.301 33 213.887 32.862 213.918 32.586C214.47 28.0473 215.145 22.65 215.942 16.394L217.874 1.444C217.935 0.983998 218.38 0.753998 219.208 0.753998C220.22 0.753998 220.741 1.03 220.772 1.582L224.728 32.54ZM219.53 11.61C219.53 11.2727 219.423 11.104 219.208 11.104C219.024 11.104 218.932 11.2573 218.932 11.564C218.84 12.7293 218.717 14.5233 218.564 16.946C218.441 19.0313 218.334 20.6107 218.242 21.684C218.211 21.96 218.549 22.098 219.254 22.098C219.959 22.098 220.297 21.9753 220.266 21.73L219.53 11.61ZM10.914 71.664C10.914 75.2213 9.10467 77 5.486 77C3.554 77 2.15867 76.3867 1.3 75.16C0.594667 74.2093 0.242 73.0593 0.242 71.71V68.72C0.242 68.4747 0.702 68.352 1.622 68.352C2.69533 68.352 3.232 68.4747 3.232 68.72V71.48C3.232 73.1053 3.98333 73.918 5.486 73.918C7.11133 73.918 7.924 73.1207 7.924 71.526V65.73C7.24933 66.006 6.46733 66.144 5.578 66.144C3.86067 66.144 2.51133 65.546 1.53 64.35C0.671333 63.338 0.242 62.1727 0.242 60.854V45.49C0.242 45.03 0.732667 44.8 1.714 44.8C2.726 44.8 3.232 45.03 3.232 45.49V60.624C3.232 62.2493 4.014 63.062 5.578 63.062C7.142 63.062 7.924 62.2647 7.924 60.67V45.352C7.924 44.984 8.384 44.8 9.304 44.8H9.35C9.994 44.8 10.408 44.8307 10.592 44.892C10.684 44.9227 10.7607 44.984 10.822 45.076C10.8833 45.1373 10.914 45.214 10.914 45.306V71.664ZM30.5578 70.514C30.5578 72.2313 30.0058 73.734 28.9018 75.022C27.7365 76.3407 26.1265 77 24.0718 77H21.8178C20.8365 76.908 20.3151 76.8313 20.2538 76.77C20.0085 76.402 19.8858 75.8807 19.8858 75.206V46.226C19.8858 45.6433 19.9778 45.26 20.1618 45.076C20.3765 44.892 20.7445 44.8 21.2658 44.8H23.8878C25.9118 44.8 27.5218 45.3367 28.7178 46.41C29.8525 47.4833 30.4198 49.078 30.4198 51.194V55.334C30.4198 56.6527 30.2511 57.6187 29.9138 58.232C29.6378 58.7533 29.1931 59.198 28.5798 59.566L27.7978 60.072L28.6718 60.532C29.3158 60.9 29.7758 61.36 30.0518 61.912C30.3891 62.5867 30.5578 63.5527 30.5578 64.81V70.514ZM27.4298 51.194C27.4298 50.0593 27.1078 49.17 26.4638 48.526C26.0038 48.066 25.2985 47.836 24.3478 47.836C23.5811 47.836 23.1365 47.9433 23.0138 48.158C22.9218 48.342 22.8758 48.6027 22.8758 48.94V57.542C22.8758 58.186 22.9678 58.6 23.1518 58.784C23.3051 58.9373 23.5811 59.014 23.9798 59.014C25.0225 59.014 25.8658 58.6767 26.5098 58.002C27.1231 57.3273 27.4298 56.5147 27.4298 55.564V51.194ZM27.6138 64.672C27.6138 62.648 26.7398 61.636 24.9918 61.636C24.0105 61.636 23.4125 61.6973 23.1978 61.82C22.9831 61.9733 22.8758 62.326 22.8758 62.878V72.538C22.8758 73.458 23.0291 73.9333 23.3358 73.964C23.5811 73.9947 23.8571 74.01 24.1638 74.01C25.1758 74.01 26.0038 73.6727 26.6478 72.998C27.2918 72.2927 27.6138 71.48 27.6138 70.56V64.672ZM43.064 76.54C43.0947 76.7853 43.018 76.9233 42.834 76.954C42.742 76.9847 42.3434 77 41.638 77C40.8714 77 40.442 76.9847 40.35 76.954C40.1354 76.9233 40.0127 76.7547 39.982 76.448C39.8594 75.6507 39.6907 74.4087 39.476 72.722L38.97 69.042C38.9394 68.766 38.464 68.628 37.544 68.628C36.6547 68.628 36.1947 68.766 36.164 69.042C35.8574 71.894 35.612 74.3933 35.428 76.54C35.3974 76.8467 34.7534 77 33.496 77C32.6374 77 32.2234 76.862 32.254 76.586C32.806 72.0473 33.4807 66.65 34.278 60.394L36.21 45.444C36.2714 44.984 36.716 44.754 37.544 44.754C38.556 44.754 39.0774 45.03 39.108 45.582L43.064 76.54ZM37.866 55.61C37.866 55.2727 37.7587 55.104 37.544 55.104C37.36 55.104 37.268 55.2573 37.268 55.564C37.176 56.7293 37.0534 58.5233 36.9 60.946C36.7774 63.0313 36.67 64.6107 36.578 65.684C36.5474 65.96 36.8847 66.098 37.59 66.098C38.2954 66.098 38.6327 65.9753 38.602 65.73L37.866 55.61ZM55.7087 71.618C55.7087 73.182 55.2947 74.4393 54.4667 75.39C53.516 76.4633 52.1513 77 50.3727 77C48.7167 77 47.3827 76.4173 46.3707 75.252C45.4813 74.2093 45.0367 73.0133 45.0367 71.664V50.228C45.0367 48.848 45.4813 47.6367 46.3707 46.594C47.3827 45.398 48.7167 44.8 50.3727 44.8C52.09 44.8 53.4547 45.4593 54.4667 46.778C55.2947 47.8513 55.7087 49.0013 55.7087 50.228V52.298C55.7087 52.6353 55.2027 52.804 54.1907 52.804C53.148 52.804 52.6267 52.6353 52.6267 52.298V50.136C52.6267 49.584 52.4273 49.0473 52.0287 48.526C51.5687 47.9433 51.0167 47.652 50.3727 47.652C49.698 47.652 49.1307 47.928 48.6707 48.48C48.2413 48.9707 48.0267 49.5073 48.0267 50.09V71.388C48.0267 73.0747 48.8087 73.918 50.3727 73.918C51.8753 73.918 52.6267 73.1207 52.6267 71.526V68.812C52.6267 68.5667 53.102 68.444 54.0527 68.444C55.1567 68.444 55.7087 68.5667 55.7087 68.812V71.618ZM73.3317 76.402C73.4237 76.8007 72.979 77 71.9977 77C71.047 77 70.541 76.8467 70.4797 76.54C69.6517 72.4 68.9617 68.8427 68.4097 65.868C68.3177 65.592 68.2257 65.454 68.1337 65.454C68.011 65.454 67.9037 65.6073 67.8117 65.914L65.8797 76.402C65.849 76.678 65.7417 76.8467 65.5577 76.908C65.3737 76.9693 64.9137 77 64.1777 77C63.595 77 63.2424 76.954 63.1197 76.862C62.9664 76.8007 62.9204 76.586 62.9817 76.218L65.9257 61.636C66.0177 61.268 66.0637 60.9153 66.0637 60.578C66.0637 60.2713 65.987 59.8573 65.8337 59.336L63.2577 45.214C63.1964 44.938 63.6717 44.8 64.6837 44.8C65.6957 44.8 66.2324 44.938 66.2937 45.214L67.8577 55.334C67.8577 55.61 67.9497 55.748 68.1337 55.748C68.287 55.748 68.3637 55.5947 68.3637 55.288L69.9737 45.076C70.0044 44.892 70.4797 44.8 71.3997 44.8C72.5037 44.8 73.0404 44.9227 73.0097 45.168C71.139 55.3493 70.265 60.0567 70.3877 59.29C70.265 59.9033 70.2037 60.3173 70.2037 60.532C70.2037 60.8693 70.265 61.2067 70.3877 61.544C72.0437 69.8853 73.025 74.838 73.3317 76.402ZM85.986 71.25C85.986 75.0833 84.2073 77 80.65 77C78.8713 77 77.5067 76.4173 76.556 75.252C75.728 74.24 75.314 72.906 75.314 71.25V50.412C75.314 48.7253 75.8353 47.3607 76.878 46.318C77.8593 45.306 79.1167 44.8 80.65 44.8C82.1833 44.8 83.456 45.3367 84.468 46.41C85.48 47.4833 85.986 48.8173 85.986 50.412V71.25ZM82.95 50.412C82.95 49.7373 82.7353 49.1087 82.306 48.526C81.846 47.9433 81.294 47.652 80.65 47.652C80.006 47.652 79.4387 47.9433 78.948 48.526C78.5187 49.1087 78.304 49.7373 78.304 50.412V71.112C78.304 72.9827 79.086 73.918 80.65 73.918C82.1833 73.918 82.95 72.9827 82.95 71.112V50.412ZM100.097 57.174C100.097 58.8913 99.5449 60.394 98.4409 61.682C97.2755 63.0007 95.5429 63.66 93.2429 63.66C92.6602 63.66 92.3689 63.982 92.3689 64.626V76.264C92.3689 76.6013 92.2615 76.816 92.0469 76.908C91.8935 76.9693 91.4795 77 90.8049 77C90.1915 77 89.8082 76.9693 89.6549 76.908C89.5015 76.8467 89.4249 76.6627 89.4249 76.356V46.226C89.4249 45.674 89.5322 45.2907 89.7469 45.076C89.9615 44.892 90.3142 44.8 90.8049 44.8H93.5649C95.5889 44.8 97.1989 45.3367 98.3949 46.41C99.5295 47.4833 100.097 49.078 100.097 51.194V57.174ZM97.1069 51.194C97.1069 50.0593 96.7849 49.17 96.1409 48.526C95.6809 48.066 94.9755 47.836 94.0249 47.836C93.1662 47.836 92.6755 47.9433 92.5529 48.158C92.4609 48.342 92.4149 48.6027 92.4149 48.94V59.198C92.4149 59.9647 92.5222 60.4093 92.7369 60.532C92.8289 60.5933 93.1815 60.624 93.7949 60.624C94.7762 60.624 95.5735 60.302 96.1869 59.658C96.8002 58.9833 97.1069 58.1707 97.1069 57.22V51.194ZM113.478 71.25C113.478 75.0833 111.7 77 108.142 77C106.364 77 104.999 76.4173 104.048 75.252C103.22 74.24 102.806 72.906 102.806 71.25V50.412C102.806 48.7253 103.328 47.3607 104.37 46.318C105.352 45.306 106.609 44.8 108.142 44.8C109.676 44.8 110.948 45.3367 111.96 46.41C112.972 47.4833 113.478 48.8173 113.478 50.412V71.25ZM110.442 50.412C110.442 49.7373 110.228 49.1087 109.798 48.526C109.338 47.9433 108.786 47.652 108.142 47.652C107.498 47.652 106.931 47.9433 106.44 48.526C106.011 49.1087 105.796 49.7373 105.796 50.412V71.112C105.796 72.9827 106.578 73.918 108.142 73.918C109.676 73.918 110.442 72.9827 110.442 71.112V50.412ZM127.589 72.262C127.589 73.2433 127.681 73.7647 127.865 73.826C128.08 73.9487 128.816 73.9947 130.073 73.964C131.238 73.9333 131.882 73.872 132.005 73.78C132.22 73.6267 132.327 73.0747 132.327 72.124V45.582C132.327 45.2447 132.419 45.03 132.603 44.938C132.756 44.8767 133.186 44.846 133.891 44.846C134.504 44.846 134.888 44.8767 135.041 44.938C135.194 44.9993 135.271 45.1833 135.271 45.49V76.126C135.271 76.678 134.811 76.954 133.891 76.954H118.297C117.377 76.954 116.917 76.678 116.917 76.126V45.49C116.917 45.1833 116.994 44.9993 117.147 44.938C117.3 44.8767 117.684 44.846 118.297 44.846C119.002 44.846 119.432 44.8767 119.585 44.938C119.769 45.03 119.861 45.2447 119.861 45.582V72.124C119.861 73.0747 119.968 73.6267 120.183 73.78C120.306 73.872 120.95 73.9333 122.115 73.964C123.372 73.9947 124.108 73.9487 124.323 73.826C124.507 73.7647 124.599 73.2433 124.599 72.262V45.766C124.599 45.3367 124.66 45.076 124.783 44.984C124.906 44.892 125.335 44.846 126.071 44.846C126.776 44.846 127.206 44.892 127.359 44.984C127.512 45.076 127.589 45.3367 127.589 45.766V72.262ZM138.884 45.49C138.884 45.03 139.329 44.8 140.218 44.8C140.893 44.8 141.322 44.846 141.506 44.938C141.69 45.03 141.782 45.26 141.782 45.628V62.28C141.782 62.832 141.874 63.108 142.058 63.108C142.242 63.108 142.411 62.74 142.564 62.004L144.45 54.414C145.217 51.2553 145.845 48.7253 146.336 46.824C146.551 45.9653 146.796 45.4133 147.072 45.168C147.317 44.9227 147.762 44.8 148.406 44.8C149.173 44.8 149.556 44.9533 149.556 45.26V76.172C149.556 76.54 149.464 76.77 149.28 76.862C149.127 76.954 148.713 77 148.038 77C147.394 77 146.995 76.954 146.842 76.862C146.658 76.77 146.566 76.54 146.566 76.172V57.818C146.566 57.266 146.459 56.99 146.244 56.99C146.213 56.99 145.891 58.1093 145.278 60.348C144.665 62.74 143.469 67.6927 141.69 75.206C141.414 76.402 140.862 77 140.034 77C139.482 77 139.145 76.8927 139.022 76.678C138.93 76.494 138.884 75.9727 138.884 75.114V45.49ZM153.214 45.49C153.214 45.03 153.659 44.8 154.548 44.8C155.223 44.8 155.652 44.846 155.836 44.938C156.02 45.03 156.112 45.26 156.112 45.628V62.28C156.112 62.832 156.204 63.108 156.388 63.108C156.572 63.108 156.741 62.74 156.894 62.004L158.78 54.414C159.547 51.2553 160.175 48.7253 160.666 46.824C160.881 45.9653 161.126 45.4133 161.402 45.168C161.647 44.9227 162.092 44.8 162.736 44.8C163.503 44.8 163.886 44.9533 163.886 45.26V76.172C163.886 76.54 163.794 76.77 163.61 76.862C163.457 76.954 163.043 77 162.368 77C161.724 77 161.325 76.954 161.172 76.862C160.988 76.77 160.896 76.54 160.896 76.172V57.818C160.896 57.266 160.789 56.99 160.574 56.99C160.543 56.99 160.221 58.1093 159.608 60.348C158.995 62.74 157.799 67.6927 156.02 75.206C155.744 76.402 155.192 77 154.364 77C153.812 77 153.475 76.8927 153.352 76.678C153.26 76.494 153.214 75.9727 153.214 75.114V45.49ZM163.012 39.832C163.227 40.2307 162.859 40.9513 161.908 41.994C160.835 43.19 159.669 43.788 158.412 43.788C157.277 43.788 156.158 43.2053 155.054 42.04C154.011 40.9667 153.613 40.2307 153.858 39.832C154.226 39.2187 154.502 38.82 154.686 38.636C154.717 38.6053 155.1 38.9733 155.836 39.74C156.725 40.6293 157.63 41.074 158.55 41.074C159.439 41.074 160.283 40.6293 161.08 39.74C161.755 39.004 162.123 38.6667 162.184 38.728C162.521 39.1267 162.797 39.4947 163.012 39.832ZM183.966 70.514C183.966 72.2313 183.414 73.734 182.31 75.022C181.145 76.3407 179.535 77 177.48 77H175.226C174.245 76.908 173.723 76.8313 173.662 76.77C173.417 76.402 173.294 75.8807 173.294 75.206V46.226C173.294 45.6433 173.386 45.26 173.57 45.076C173.785 44.892 174.153 44.8 174.674 44.8H177.296C179.32 44.8 180.93 45.3367 182.126 46.41C183.261 47.4833 183.828 49.078 183.828 51.194V55.334C183.828 56.6527 183.659 57.6187 183.322 58.232C183.046 58.7533 182.601 59.198 181.988 59.566L181.206 60.072L182.08 60.532C182.724 60.9 183.184 61.36 183.46 61.912C183.797 62.5867 183.966 63.5527 183.966 64.81V70.514ZM180.838 51.194C180.838 50.0593 180.516 49.17 179.872 48.526C179.412 48.066 178.707 47.836 177.756 47.836C176.989 47.836 176.545 47.9433 176.422 48.158C176.33 48.342 176.284 48.6027 176.284 48.94V57.542C176.284 58.186 176.376 58.6 176.56 58.784C176.713 58.9373 176.989 59.014 177.388 59.014C178.431 59.014 179.274 58.6767 179.918 58.002C180.531 57.3273 180.838 56.5147 180.838 55.564V51.194ZM181.022 64.672C181.022 62.648 180.148 61.636 178.4 61.636C177.419 61.636 176.821 61.6973 176.606 61.82C176.391 61.9733 176.284 62.326 176.284 62.878V72.538C176.284 73.458 176.437 73.9333 176.744 73.964C176.989 73.9947 177.265 74.01 177.572 74.01C178.584 74.01 179.412 73.6727 180.056 72.998C180.7 72.2927 181.022 71.48 181.022 70.56V64.672ZM197.576 76.448C197.638 76.816 197.132 77 196.058 77C195.108 77 194.571 76.7853 194.448 76.356L191.228 63.384C191.075 62.74 190.753 62.9853 190.262 64.12C190.017 64.7027 189.894 65.3467 189.894 66.052V76.172C189.894 76.54 189.802 76.77 189.618 76.862C189.465 76.954 189.051 77 188.376 77C187.426 77 186.95 76.7547 186.95 76.264V45.49C186.95 45.0607 187.41 44.846 188.33 44.846C189.373 44.846 189.894 45.076 189.894 45.536V56.668C189.894 57.3427 189.971 57.6493 190.124 57.588C190.186 57.5573 190.293 57.266 190.446 56.714C190.906 55.1807 191.443 53.31 192.056 51.102L193.62 45.444C193.712 45.1373 194.264 44.984 195.276 44.984C196.38 44.984 196.886 45.1373 196.794 45.444L193.436 57.174C193.314 57.6647 193.252 58.1707 193.252 58.692C193.252 58.9987 193.314 59.5507 193.436 60.348C193.927 62.3413 194.602 64.9787 195.46 68.26C196.288 71.3267 196.994 74.056 197.576 76.448ZM209.738 71.664C209.738 75.2213 207.929 77 204.31 77C202.378 77 200.983 76.3867 200.124 75.16C199.419 74.2093 199.066 73.0593 199.066 71.71V68.72C199.066 68.4747 199.526 68.352 200.446 68.352C201.52 68.352 202.056 68.4747 202.056 68.72V71.48C202.056 73.1053 202.808 73.918 204.31 73.918C205.936 73.918 206.748 73.1207 206.748 71.526V65.73C206.074 66.006 205.292 66.144 204.402 66.144C202.685 66.144 201.336 65.546 200.354 64.35C199.496 63.338 199.066 62.1727 199.066 60.854V45.49C199.066 45.03 199.557 44.8 200.538 44.8C201.55 44.8 202.056 45.03 202.056 45.49V60.624C202.056 62.2493 202.838 63.062 204.402 63.062C205.966 63.062 206.748 62.2647 206.748 60.67V45.352C206.748 44.984 207.208 44.8 208.128 44.8H208.174C208.818 44.8 209.232 44.8307 209.416 44.892C209.508 44.9227 209.585 44.984 209.646 45.076C209.708 45.1373 209.738 45.214 209.738 45.306V71.664ZM223.402 71.618C223.402 73.182 222.988 74.4393 222.16 75.39C221.209 76.4633 219.845 77 218.066 77C216.41 77 215.076 76.4173 214.064 75.252C213.175 74.2093 212.73 73.0133 212.73 71.664V50.228C212.73 48.848 213.175 47.6367 214.064 46.594C215.076 45.398 216.41 44.8 218.066 44.8C219.783 44.8 221.148 45.4593 222.16 46.778C222.988 47.8513 223.402 49.0013 223.402 50.228V52.298C223.402 52.6353 222.896 52.804 221.884 52.804C220.841 52.804 220.32 52.6353 220.32 52.298V50.136C220.32 49.584 220.121 49.0473 219.722 48.526C219.262 47.9433 218.71 47.652 218.066 47.652C217.391 47.652 216.824 47.928 216.364 48.48C215.935 48.9707 215.72 49.5073 215.72 50.09V71.388C215.72 73.0747 216.502 73.918 218.066 73.918C219.569 73.918 220.32 73.1207 220.32 71.526V68.812C220.32 68.5667 220.795 68.444 221.746 68.444C222.85 68.444 223.402 68.5667 223.402 68.812V71.618Z" fill="white"/>
</svg>
